<?xml version="1.0" encoding="utf-8"?>
<!-- Generator: Adobe Illustrator 22.1.0, SVG Export Plug-In . SVG Version: 6.00 Build 0)  -->
<svg version="1.1" xmlns="http://www.w3.org/2000/svg" xmlns:xlink="http://www.w3.org/1999/xlink" x="0px" y="0px"
	 viewBox="0 0 4975 4975" style="enable-background:new 0 0 4975 4975;" xml:space="preserve">
<style type="text/css">
	.st0{fill:#438A47;}
	.st1{fill:#EF3B2B;}
	.st2{opacity:0.7;fill:#F48070;}
	.st3{opacity:0.7;fill:#F04F41;}
</style>
<g id="Layer_1">
</g>
<g id="Isolation_Mode">
	<g>
		<path class="st0" d="M3087.5,1579c0,0-318.9-249-355.5-542.8c-36.6-293.8,84.3-773.8,84.3-773.8s577.9,270.8,632.5,612.3
			c54.6,341.5-187.8,699.8-248.9,722.1c15.5-138.3,22.3-680.6-200.5-915C2999.4,681.8,3210.3,1208.1,3087.5,1579z"/>
		<path class="st1" d="M3832,3333.6c-372,0-673.6-301.6-673.6-673.6c0-312.4,212.7-575.1,501.1-651.3
			c-99.1-99.2-217.4-161.9-346.4-197.7c-359.7-99.7-215.7-145.1-453.8-285.3c-238.2-140.2-974.6-231.4-1487.2,310.3
			c-512.6,541.6-555.8,1567.3-217.4,1962.3c0,0,223.7,257.3,418.2,322.3c194.5,65,179.6,105.3,323.2,221.9
			c143.6,116.6,700.4,264.7,1035.7,87.5c273.8-144.7,794.9-557.5,970-1100.1C3878.9,3332.3,3855.6,3333.6,3832,3333.6z"/>
		<path class="st2" d="M3832,3326.7c-372,0-673.6-301.6-673.6-673.6c0-310.4,210-571.7,495.6-649.8c-98-96.1-214.2-157.2-341-192.3
			c-359.7-99.7-215.7-145.1-453.8-285.3c-238.2-140.2-974.6-231.4-1487.2,310.3c-62.5,66-147.3,203.5-207.2,306.6
			c-124.3,265,474.8,988.7,1040.8,1216.6c652.1,262.5,1433.9,213,1665.4-33.6C3858.2,3326.3,3845.1,3326.7,3832,3326.7z"/>
		<path class="st3" d="M3841.6,3326.7c-372,0-673.6-301.6-673.6-673.6c0-307.7,206.3-567.2,488.2-647.7
			c-98.4-97.3-215.4-159-343-194.4c-47.1-13.1-82.7-29-111.4-44.2c-467.6-205.5-1769.5,1815.3-1443.4,2449.4
			c36.5,32,69,70.4,137.9,126.3c143.6,116.6,700.4,264.7,1035.7,87.5c274.8-145.3,798.8-560.6,971.9-1106.3
			C3883.3,3325.7,3862.5,3326.7,3841.6,3326.7z"/>
	</g>
</g>
</svg>
