<?xml version="1.0" encoding="utf-8"?>
<!-- Generator: Adobe Illustrator 22.1.0, SVG Export Plug-In . SVG Version: 6.00 Build 0)  -->
<svg version="1.1" id="Isolation_Mode" xmlns="http://www.w3.org/2000/svg" xmlns:xlink="http://www.w3.org/1999/xlink" x="0px"
	 y="0px" viewBox="0 0 4975 4975" style="enable-background:new 0 0 4975 4975;" xml:space="preserve">
<style type="text/css">
	.st0{fill:#A84A5C;}
	.st1{fill:#438A47;}
	.st2{fill:#EF3B2B;}
	.st3{opacity:0.7;fill:#F48070;}
	.st4{opacity:0.7;fill:#F04F41;}
</style>
<path class="st0" d="M2496.5,1964.3c8.3,8.2,14.8,16.4,20.7,24.5c5.9,8.2,11.1,16.4,15.8,24.5c9.3,16.4,16.5,32.7,22.1,49.1
	c11.1,32.7,15.9,65.5,16,98.2c0,32.7-4.7,65.5-15.8,98.2c-5.6,16.4-12.8,32.7-22.1,49.1c-4.7,8.2-9.9,16.4-15.8,24.6
	c-6,8.2-12.5,16.4-20.9,24.6c-8.3-8.2-14.8-16.4-20.9-24.6c-5.9-8.2-11.2-16.4-15.8-24.6c-9.3-16.4-16.5-32.7-22.1-49.1
	c-11.1-32.7-15.9-65.5-15.8-98.2c0.1-32.7,4.9-65.5,16-98.2c5.6-16.4,12.8-32.7,22.1-49.1c4.7-8.2,9.9-16.4,15.8-24.5
	C2481.7,1980.7,2488.2,1972.5,2496.5,1964.3z"/>
<path class="st0" d="M2496.5,1516.1c8.3,8.2,14.8,16.4,20.7,24.5c5.9,8.2,11.1,16.4,15.8,24.6c9.3,16.4,16.5,32.7,22.1,49.1
	c11.1,32.7,15.9,65.5,16,98.2c0,32.7-4.7,65.5-15.8,98.2c-5.6,16.4-12.8,32.7-22.1,49.1c-4.7,8.2-9.9,16.4-15.8,24.5
	c-6,8.2-12.5,16.4-20.9,24.6c-8.3-8.2-14.8-16.4-20.9-24.6c-5.9-8.2-11.2-16.4-15.8-24.5c-9.3-16.4-16.5-32.7-22.1-49.1
	c-11.1-32.7-15.9-65.5-15.8-98.2c0.1-32.7,4.9-65.5,16-98.2c5.6-16.4,12.8-32.7,22.1-49.1c4.7-8.2,9.9-16.4,15.8-24.6
	C2481.7,1532.4,2488.2,1524.3,2496.5,1516.1z"/>
<path class="st0" d="M2820.1,2086.3c-11.6,0.8-21.9,2.8-31.7,5.1c-9.8,2.4-19.1,5.2-27.9,8.4c-17.7,6.4-33.8,14.1-48.7,22.9
	c-29.8,17.6-54.7,39.3-76.1,64.1c-21.3,24.8-39,52.8-51.9,84.8c-6.4,16-11.6,33.2-15.2,51.7c-1.8,9.2-3.1,18.9-4,28.9
	c-0.8,10.1-1.2,20.6-0.2,32.2c11.7-0.8,21.9-2.8,31.8-5c9.8-2.4,19.1-5.2,28-8.3c17.7-6.4,33.9-14.1,48.7-22.9
	c29.7-17.6,54.7-39.4,76-64.2c21.2-24.9,38.9-52.9,51.8-85c6.4-16,11.6-33.2,15.2-51.6c1.8-9.2,3.2-18.8,4-28.9
	C2820.7,2108.3,2821.1,2097.9,2820.1,2086.3z"/>
<path class="st0" d="M3574.9,1806.3c-11.4-2.6-21.7-3.6-31.9-4.2c-10.1-0.5-19.8-0.5-29.2,0c-18.8,1-36.5,3.8-53.2,7.9
	c-33.6,8.3-63.7,21.9-91.3,39.5c-27.6,17.6-52.5,39.3-74.1,66.3c-10.8,13.5-20.6,28.4-29.4,45.1c-4.4,8.3-8.4,17.2-12.1,26.6
	c-3.6,9.5-7,19.4-9.4,30.8c11.4,2.6,21.8,3.7,31.9,4.3c10.1,0.6,19.8,0.6,29.2,0.1c18.8-1,36.5-3.8,53.3-7.9
	c33.5-8.3,63.7-22,91.2-39.7c27.5-17.8,52.4-39.5,74-66.5c10.8-13.5,20.6-28.4,29.4-45.1c4.4-8.3,8.4-17.1,12.2-26.5
	C3569.1,1827.5,3572.5,1817.7,3574.9,1806.3z"/>
<path class="st0" d="M2746.7,1712.5c-10.4,5.2-19.1,11-27.3,17c-8.1,6-15.6,12.2-22.5,18.5c-13.8,12.7-25.8,26.1-36.1,40
	c-20.6,27.7-35.3,57.4-45.4,88.5c-10.1,31.1-15.6,63.8-15.1,98.3c0.3,17.3,2.1,35.1,6,53.5c1.9,9.2,4.4,18.6,7.5,28.2
	c3.2,9.6,6.9,19.4,12.3,29.8c10.5-5.2,19.2-11,27.4-17c8.2-6,15.6-12.2,22.6-18.5c13.9-12.7,25.8-26.1,36.1-39.9
	c20.6-27.8,35.2-57.4,45.2-88.6c10-31.2,15.4-63.8,14.9-98.4c-0.3-17.3-2.1-35.1-5.9-53.5c-1.9-9.2-4.4-18.6-7.5-28.2
	C2755.7,1732.6,2752.1,1722.8,2746.7,1712.5z"/>
<path class="st0" d="M2715.7,1280.3c-9.9,6.1-18,12.7-25.7,19.3c-7.6,6.7-14.5,13.5-20.8,20.4c-12.7,13.9-23.3,28.3-32.4,43
	c-18.1,29.5-30.1,60.3-37.4,92.2c-7.3,31.9-9.9,64.9-6.3,99.3c1.8,17.2,5.2,34.8,10.7,52.8c2.7,9,6,18.2,10,27.4
	c4,9.3,8.6,18.7,14.9,28.6c10-6.1,18.1-12.7,25.8-19.3c7.6-6.7,14.5-13.5,20.9-20.4c12.7-13.9,23.4-28.3,32.4-43
	c18.1-29.5,30-60.3,37.2-92.3c7.2-31.9,9.7-64.9,6.1-99.3c-1.8-17.2-5.2-34.8-10.6-52.8c-2.7-9-6-18.1-9.9-27.4
	C2726.5,1299.5,2722,1290.1,2715.7,1280.3z"/>
<path class="st0" d="M3441.1,2093.4c-10.5-5-20.4-8.3-30.2-11.1c-9.7-2.7-19.2-4.8-28.5-6.4c-18.6-3.1-36.4-4.3-53.7-3.9
	c-34.6,0.8-67,7.4-97.8,18.5c-30.8,11.2-59.9,26.9-86.9,48.5c-13.5,10.8-26.4,23.2-38.6,37.6c-6.1,7.2-12,14.9-17.7,23.3
	c-5.6,8.4-11.1,17.4-15.9,28c10.5,5,20.5,8.4,30.2,11.2c9.7,2.8,19.2,4.9,28.5,6.5c18.6,3.1,36.4,4.3,53.7,4
	c34.6-0.8,66.9-7.5,97.7-18.7c30.7-11.3,59.8-27,86.8-48.7c13.5-10.8,26.4-23.2,38.6-37.5c6.1-7.2,12-14.9,17.7-23.2
	C3430.8,2112.8,3436.3,2104,3441.1,2093.4z"/>
<path class="st0" d="M3170.2,1970.8c-11.5-1.9-21.9-2.3-32.1-2.4c-10.1,0-19.8,0.6-29.1,1.7c-18.7,2.1-36.2,5.9-52.7,11
	c-33,10.2-62.3,25.6-88.9,44.7c-26.5,19.2-50.2,42.3-70.1,70.5c-10,14.1-19,29.6-26.7,46.7c-3.9,8.6-7.4,17.6-10.6,27.2
	c-3.1,9.7-5.9,19.7-7.6,31.3c11.5,1.9,22,2.4,32.1,2.4c10.1,0,19.8-0.6,29.2-1.6c18.7-2.1,36.2-5.9,52.7-11
	c33-10.3,62.3-25.6,88.7-44.9c26.4-19.3,50.1-42.5,70-70.7c10-14.1,19-29.6,26.8-46.7c3.9-8.6,7.4-17.6,10.6-27.2
	C3165.6,1992.4,3168.5,1982.3,3170.2,1970.8z"/>
<path class="st0" d="M2999.1,1092.2c-11,3.8-20.4,8.3-29.3,13.1c-8.9,4.8-17.1,9.9-24.9,15.3c-15.5,10.7-29.1,22.3-41.2,34.7
	c-24.2,24.7-42.8,52.1-57.1,81.5c-14.2,29.5-24.1,61-28.4,95.3c-2.1,17.2-2.7,35-1.4,53.8c0.7,9.4,1.8,19,3.6,29
	c1.9,10,4.2,20.2,8.1,31.2c11.1-3.8,20.5-8.3,29.4-13.1c8.9-4.8,17.2-9.9,24.9-15.2c15.5-10.7,29.1-22.3,41.2-34.6
	c24.2-24.7,42.7-52.1,56.9-81.6c14.1-29.5,24-61.1,28.2-95.4c2.1-17.2,2.7-35,1.4-53.8c-0.6-9.4-1.8-19-3.5-29
	C3005.3,1113.4,3003.1,1103.2,2999.1,1092.2z"/>
<path class="st0" d="M2510.1,1063.8c-8.9,7.6-15.9,15.2-22.5,23c-6.5,7.7-12.3,15.5-17.5,23.3c-10.4,15.6-18.8,31.4-25.6,47.4
	c-13.5,31.8-20.7,64.1-23.1,96.8c-2.4,32.6,0,65.6,8.6,99.1c4.4,16.7,10.4,33.6,18.5,50.6c4.1,8.5,8.7,17,14,25.6
	c5.4,8.6,11.3,17.2,19,26c8.9-7.6,16-15.2,22.6-23c6.5-7.7,12.3-15.5,17.6-23.3c10.5-15.6,18.9-31.4,25.6-47.4
	c13.4-31.8,20.6-64.1,22.9-96.8c2.3-32.7-0.1-65.7-8.9-99.1c-4.4-16.7-10.4-33.6-18.4-50.6c-4-8.5-8.6-17-13.9-25.6
	C2523.7,1081.2,2517.8,1072.6,2510.1,1063.8z"/>
<path class="st0" d="M3640.8,1477.3c-11.6-0.8-22-0.3-32.1,0.6c-10,1-19.6,2.5-28.8,4.4c-18.4,3.8-35.5,9.2-51.4,15.9
	c-31.9,13.3-59.7,31.3-84.3,52.8c-24.6,21.6-46,46.8-63.3,76.7c-8.6,15-16.1,31.2-22.3,49c-3.1,8.9-5.7,18.2-8,28.1
	c-2.2,9.9-4,20.2-4.7,31.9c11.7,0.9,22.1,0.3,32.2-0.5c10.1-1,19.7-2.4,28.9-4.3c18.4-3.8,35.5-9.2,51.5-15.8
	c31.9-13.3,59.6-31.3,84.2-53c24.5-21.7,45.9-46.9,63.2-76.9c8.6-15,16.1-31.2,22.3-49c3.1-8.9,5.8-18.2,8-28
	C3638.2,1499.2,3640.1,1488.9,3640.8,1477.3z"/>
<path class="st0" d="M3859.6,1903.7c-10.6-4.8-20.6-7.9-30.4-10.5c-9.8-2.5-19.3-4.4-28.6-5.8c-18.6-2.7-36.5-3.6-53.8-2.8
	c-34.5,1.5-66.8,8.8-97.4,20.5c-30.5,11.8-59.3,28.1-85.9,50.2c-13.3,11.1-25.9,23.8-37.8,38.3c-5.9,7.3-11.7,15.1-17.2,23.6
	c-5.5,8.6-10.7,17.6-15.4,28.3c10.6,4.8,20.6,7.9,30.4,10.6c9.8,2.6,19.3,4.5,28.6,5.9c18.6,2.8,36.5,3.6,53.8,2.9
	c34.5-1.5,66.8-8.9,97.3-20.7c30.5-11.9,59.3-28.2,85.8-50.4c13.3-11.1,25.9-23.8,37.8-38.3c6-7.3,11.7-15.1,17.2-23.6
	C3849.6,1923.4,3854.9,1914.4,3859.6,1903.7z"/>
<path class="st0" d="M2175.6,2086.3c11.6,0.8,21.9,2.8,31.7,5.1c9.8,2.4,19.1,5.2,27.9,8.4c17.7,6.4,33.8,14.1,48.7,22.9
	c29.8,17.6,54.7,39.3,76.1,64.1c21.3,24.8,39,52.8,51.9,84.8c6.4,16,11.6,33.2,15.2,51.7c1.8,9.2,3.1,18.9,4,28.9
	c0.8,10.1,1.2,20.6,0.2,32.2c-11.7-0.8-21.9-2.8-31.8-5c-9.8-2.4-19.1-5.2-28-8.3c-17.7-6.4-33.9-14.1-48.7-22.9
	c-29.7-17.6-54.7-39.4-76-64.2c-21.2-24.9-38.9-52.9-51.8-85c-6.4-16-11.6-33.2-15.2-51.6c-1.8-9.2-3.2-18.8-4-28.9
	C2175.1,2108.3,2174.7,2097.9,2175.6,2086.3z"/>
<path class="st0" d="M1420.9,1806.3c11.4-2.6,21.7-3.6,31.9-4.2c10.1-0.5,19.8-0.5,29.2,0c18.8,1,36.5,3.8,53.2,7.9
	c33.6,8.3,63.7,21.9,91.3,39.5c27.6,17.6,52.5,39.3,74.1,66.3c10.8,13.5,20.6,28.4,29.4,45.1c4.4,8.3,8.4,17.2,12.1,26.6
	c3.6,9.5,7,19.4,9.4,30.8c-11.4,2.6-21.8,3.7-31.9,4.3c-10.1,0.6-19.8,0.6-29.2,0.1c-18.8-1-36.5-3.8-53.3-7.9
	c-33.5-8.3-63.7-22-91.2-39.7c-27.5-17.8-52.4-39.5-74-66.5c-10.8-13.5-20.6-28.4-29.4-45.1c-4.4-8.3-8.5-17.1-12.2-26.5
	C1426.7,1827.5,1423.3,1817.7,1420.9,1806.3z"/>
<path class="st0" d="M1230.2,2188.1c9.9-6.1,19.4-10.4,28.8-14.2c9.4-3.8,18.6-6.8,27.6-9.4c18.1-5.1,35.7-8.1,53-9.6
	c34.4-2.9,67.4,0.3,99.2,8c31.8,7.8,62.4,20.3,91.5,39c14.5,9.3,28.7,20.3,42.3,33.3c6.8,6.5,13.5,13.5,20,21.3
	c6.5,7.8,12.9,16.1,18.8,26.2c-9.9,6.1-19.5,10.5-28.8,14.3c-9.4,3.8-18.6,6.9-27.6,9.5c-18.1,5.1-35.7,8.2-53,9.6
	c-34.4,2.9-67.4-0.3-99.1-8.2c-31.8-8-62.4-20.5-91.5-39.2c-14.5-9.3-28.7-20.3-42.4-33.2c-6.8-6.5-13.5-13.5-20-21.2
	C1242.5,2206.3,1236.2,2198.1,1230.2,2188.1z"/>
<path class="st0" d="M1912.4,1712.5c11.6,0.8,21.9,2.8,31.7,5.1c9.8,2.4,19.1,5.2,27.9,8.4c17.7,6.4,33.8,14.1,48.7,22.9
	c29.8,17.6,54.7,39.3,76.1,64.1c21.3,24.8,39,52.8,51.9,84.9c6.4,16,11.6,33.2,15.2,51.7c1.8,9.3,3.1,18.9,4,28.9
	c0.8,10.1,1.1,20.6,0.1,32.2c-11.7-0.8-21.9-2.8-31.8-5.1c-9.8-2.4-19.1-5.2-28-8.3c-17.7-6.4-33.9-14.1-48.7-22.9
	c-29.7-17.6-54.7-39.4-75.9-64.3c-21.2-24.9-38.9-52.9-51.7-85c-6.4-16-11.6-33.2-15.2-51.6c-1.8-9.2-3.2-18.8-4-28.9
	C1911.8,1734.5,1911.4,1724.1,1912.4,1712.5z"/>
<path class="st0" d="M2249.1,1712.5c10.4,5.2,19.1,11,27.3,17c8.1,6,15.6,12.2,22.5,18.5c13.8,12.7,25.7,26.1,36.1,40
	c20.6,27.7,35.3,57.4,45.4,88.5c10.1,31.1,15.6,63.8,15.1,98.3c-0.3,17.3-2.1,35.1-6,53.5c-1.9,9.2-4.4,18.6-7.5,28.2
	c-3.2,9.6-6.9,19.4-12.3,29.8c-10.5-5.2-19.2-11-27.4-17c-8.2-6-15.6-12.2-22.6-18.5c-13.9-12.7-25.8-26.1-36.1-39.9
	c-20.6-27.8-35.2-57.4-45.2-88.6c-10-31.2-15.4-63.8-14.9-98.4c0.3-17.3,2.1-35.1,5.9-53.5c1.9-9.2,4.4-18.6,7.5-28.2
	C2240,1732.6,2243.7,1722.8,2249.1,1712.5z"/>
<path class="st0" d="M2007.3,1418.9c10.9,4,20.2,8.8,29,13.8c8.8,5,16.9,10.3,24.5,15.8c15.2,11.1,28.6,23,40.4,35.6
	c23.7,25.2,41.6,53,55.2,82.8c13.6,29.8,22.7,61.6,26.2,96c1.7,17.2,1.9,35.1,0.2,53.8c-0.9,9.4-2.3,19-4.3,28.9
	c-2.1,9.9-4.6,20.1-8.8,31c-11-4-20.3-8.8-29.1-13.7c-8.8-5-16.9-10.3-24.6-15.8c-15.2-11.1-28.6-23-40.4-35.6
	c-23.6-25.2-41.5-53.1-55-82.9c-13.4-29.8-22.6-61.6-26-96.1c-1.7-17.2-1.9-35.1-0.2-53.8c0.9-9.4,2.2-19,4.2-28.9
	C2000.6,1439.9,2003.1,1429.8,2007.3,1418.9z"/>
<path class="st0" d="M2280.1,1280.3c9.9,6.1,18,12.7,25.7,19.3c7.6,6.7,14.5,13.5,20.8,20.4c12.7,13.9,23.3,28.3,32.4,43
	c18.1,29.5,30.1,60.3,37.4,92.2c7.3,31.9,9.9,64.9,6.3,99.3c-1.8,17.2-5.2,34.8-10.7,52.8c-2.7,9-6,18.2-10,27.4
	c-4,9.3-8.6,18.7-14.9,28.6c-10-6.1-18.1-12.7-25.8-19.3c-7.6-6.7-14.5-13.5-20.9-20.4c-12.7-13.9-23.4-28.3-32.4-43
	c-18.1-29.5-30-60.3-37.2-92.3c-7.2-31.9-9.7-64.9-6.1-99.3c1.8-17.2,5.2-34.8,10.6-52.8c2.7-9,6-18.1,9.9-27.4
	C2269.3,1299.5,2273.8,1290.1,2280.1,1280.3z"/>
<path class="st0" d="M1554.6,2093.4c10.5-5,20.4-8.3,30.2-11.1c9.7-2.7,19.2-4.8,28.5-6.4c18.6-3.1,36.4-4.3,53.7-3.9
	c34.6,0.8,67,7.4,97.8,18.5c30.8,11.2,59.9,26.9,86.9,48.5c13.5,10.8,26.4,23.2,38.6,37.6c6.1,7.2,12,14.9,17.6,23.3
	c5.6,8.4,11.1,17.4,15.9,28c-10.5,5-20.5,8.4-30.2,11.2c-9.7,2.8-19.2,4.9-28.5,6.5c-18.6,3.1-36.4,4.3-53.7,4
	c-34.5-0.8-66.9-7.5-97.7-18.7c-30.7-11.3-59.8-27-86.8-48.7c-13.5-10.8-26.4-23.2-38.6-37.5c-6.1-7.2-12-14.9-17.7-23.2
	C1565,2112.8,1559.5,2104,1554.6,2093.4z"/>
<path class="st0" d="M1358.6,2428c8.7-7.8,17.3-13.7,25.8-19.1c8.5-5.4,17-10,25.5-14.2c16.9-8.2,33.7-14.4,50.4-18.9
	c33.4-9,66.3-11.8,99-9.8c32.7,2,65,8.9,97,22c16,6.6,31.9,14.8,47.6,25.2c7.9,5.2,15.7,10.9,23.5,17.4c7.8,6.5,15.5,13.5,23.2,22.4
	c-8.7,7.8-17.3,13.8-25.8,19.3c-8.5,5.4-17,10.1-25.5,14.2c-16.9,8.2-33.7,14.4-50.4,18.9c-33.4,9-66.3,11.7-99,9.6
	c-32.7-2.2-65-9.1-97-22.3c-16-6.6-31.9-14.8-47.6-25.1c-7.9-5.2-15.7-10.9-23.5-17.3C1374,2443.8,1366.3,2436.8,1358.6,2428z"/>
<path class="st0" d="M1825.6,1970.8c11.5-1.9,21.9-2.3,32.1-2.4c10.1,0,19.8,0.6,29.1,1.7c18.7,2.1,36.2,5.9,52.7,11
	c33,10.2,62.3,25.6,88.9,44.7c26.5,19.2,50.2,42.3,70.1,70.5c10,14.1,19,29.6,26.7,46.7c3.9,8.6,7.4,17.6,10.6,27.2
	c3.1,9.7,5.9,19.7,7.6,31.3c-11.5,1.9-22,2.4-32.1,2.4c-10.1,0-19.8-0.6-29.2-1.6c-18.7-2.1-36.2-5.9-52.7-11
	c-33-10.3-62.3-25.6-88.7-44.9c-26.4-19.3-50.1-42.5-70-70.7c-10-14.1-19-29.6-26.8-46.7c-3.9-8.6-7.4-17.6-10.6-27.2
	C1830.1,1992.4,1827.3,1982.3,1825.6,1970.8z"/>
<path class="st0" d="M1726.1,2337.8c9.2-7.1,18.2-12.5,27.1-17.3c8.9-4.8,17.7-8.9,26.4-12.4c17.4-7,34.6-12,51.6-15.4
	c33.9-6.7,67-7.2,99.5-2.9c32.5,4.3,64.3,13.3,95.3,28.6c15.5,7.7,30.8,17,45.8,28.4c7.5,5.7,14.9,12,22.2,18.9
	c7.3,7,14.6,14.6,21.6,23.9c-9.2,7.2-18.2,12.6-27.1,17.4c-8.9,4.8-17.7,8.9-26.4,12.5c-17.5,7.1-34.6,12.1-51.6,15.4
	c-33.9,6.7-67,7.1-99.4,2.7c-32.4-4.4-64.2-13.5-95.2-28.9c-15.5-7.7-30.8-17-45.8-28.3c-7.5-5.7-14.9-11.9-22.3-18.9
	C1740.4,2354.6,1733.1,2347.1,1726.1,2337.8z"/>
<path class="st0" d="M1630.6,1607c11.6,0.6,21.9,2.4,31.8,4.5c9.8,2.2,19.2,4.8,28.1,7.9c17.8,6.1,34.1,13.5,49.1,22
	c30.1,17.1,55.4,38.3,77.3,62.7c21.8,24.4,40,52.1,53.5,83.9c6.7,15.9,12.2,33,16.1,51.4c2,9.2,3.5,18.8,4.5,28.9
	c1,10.1,1.5,20.5,0.7,32.2c-11.7-0.6-22-2.4-31.9-4.5c-9.9-2.2-19.2-4.8-28.1-7.8c-17.8-6-34.1-13.5-49.1-22
	c-30-17.1-55.4-38.4-77.1-62.8c-21.7-24.5-39.8-52.2-53.3-84c-6.7-15.9-12.2-33-16.2-51.3c-2-9.2-3.5-18.8-4.5-28.8
	C1630.5,1629,1629.9,1618.6,1630.6,1607z"/>
<path class="st0" d="M1689.8,1335c11.5,1.8,21.5,4.7,31.2,7.9c9.6,3.2,18.5,6.9,27.1,10.8c17.1,7.9,32.4,17.1,46.5,27.1
	c28.1,20.2,51,44,70.1,70.6c19.1,26.6,34.2,56,44.2,89.1c5,16.5,8.6,34.1,10.6,52.8c1,9.4,1.5,19.1,1.4,29.2
	c-0.1,10.2-0.7,20.6-2.7,32.1c-11.5-1.8-21.6-4.7-31.2-7.9c-9.6-3.2-18.6-6.8-27.1-10.8c-17.1-7.9-32.5-17-46.5-27.1
	c-28-20.2-51-44.1-69.9-70.7c-18.9-26.7-34-56.1-44-89.2c-5-16.6-8.6-34.1-10.6-52.8c-1-9.4-1.5-19.1-1.4-29.1
	C1687.3,1356.9,1687.8,1346.5,1689.8,1335z"/>
<path class="st0" d="M1996.6,1092.2c11,3.8,20.4,8.3,29.3,13.1c8.9,4.8,17.1,9.9,24.9,15.3c15.5,10.7,29.1,22.3,41.2,34.7
	c24.2,24.7,42.8,52.1,57.1,81.5c14.2,29.5,24.1,61,28.4,95.3c2.1,17.2,2.7,35,1.4,53.8c-0.7,9.4-1.8,19-3.6,29
	c-1.9,10-4.2,20.2-8.1,31.2c-11.1-3.8-20.5-8.3-29.4-13.1c-8.9-4.8-17.2-9.9-24.9-15.2c-15.5-10.7-29.1-22.3-41.2-34.6
	c-24.2-24.7-42.7-52.1-56.9-81.6c-14.1-29.5-24-61.1-28.2-95.4c-2.1-17.2-2.7-35-1.4-53.8c0.6-9.4,1.8-19,3.5-29
	C1990.4,1113.4,1992.7,1103.2,1996.6,1092.2z"/>
<path class="st0" d="M1302.5,1500.5c11.6-0.8,22-0.3,32.1,0.6c10,1,19.6,2.5,28.8,4.4c18.4,3.8,35.5,9.2,51.4,15.9
	c31.9,13.3,59.7,31.3,84.3,52.8c24.6,21.6,46,46.8,63.3,76.7c8.6,15,16.1,31.2,22.3,49c3.1,8.9,5.7,18.2,8,28.1
	c2.2,9.9,4,20.2,4.7,31.9c-11.7,0.9-22.1,0.3-32.2-0.5c-10.1-1-19.7-2.4-28.9-4.3c-18.4-3.8-35.5-9.2-51.5-15.8
	c-31.9-13.3-59.6-31.3-84.2-53c-24.5-21.7-45.9-46.9-63.2-76.9c-8.6-15-16.1-31.2-22.3-49c-3.1-8.9-5.8-18.2-8-28
	C1305.1,1522.4,1303.2,1512.2,1302.5,1500.5z"/>
<path class="st0" d="M1136.2,1903.7c10.6-4.8,20.6-7.9,30.4-10.5c9.8-2.5,19.3-4.4,28.6-5.8c18.6-2.7,36.5-3.6,53.8-2.8
	c34.5,1.5,66.8,8.8,97.4,20.5c30.5,11.8,59.3,28.1,85.9,50.2c13.3,11.1,25.9,23.8,37.8,38.3c5.9,7.3,11.7,15.1,17.2,23.6
	c5.5,8.6,10.7,17.6,15.4,28.3c-10.6,4.8-20.6,7.9-30.4,10.6c-9.8,2.6-19.3,4.5-28.6,5.9c-18.6,2.8-36.5,3.6-53.8,2.9
	c-34.5-1.5-66.8-8.9-97.3-20.7c-30.5-11.9-59.3-28.2-85.8-50.4c-13.3-11.1-25.9-23.8-37.8-38.3c-6-7.3-11.7-15.1-17.2-23.6
	C1146.1,1923.4,1140.9,1914.4,1136.2,1903.7z"/>
<path class="st0" d="M995.1,1592.7c11.2-3.1,21.6-4.6,31.6-5.7c10-1,19.7-1.4,29.1-1.3c18.8,0.2,36.6,2.1,53.5,5.5
	c33.9,6.8,64.7,19,93,35.3c28.4,16.4,54.3,36.9,77.1,62.9c11.4,13,21.9,27.5,31.4,43.7c4.7,8.1,9.2,16.8,13.3,26
	c4.1,9.3,7.9,19,10.8,30.3c-11.3,3.1-21.6,4.7-31.7,5.8c-10.1,1-19.8,1.5-29.2,1.4c-18.8-0.1-36.6-2.1-53.6-5.5
	c-33.9-6.8-64.6-19-92.9-35.5c-28.3-16.5-54.2-37-77-63.1c-11.4-13-21.9-27.5-31.5-43.7c-4.8-8.1-9.2-16.7-13.4-25.9
	C1001.9,1613.7,998,1604,995.1,1592.7z"/>
<path class="st0" d="M1379.9,1209.1c11.6,1.2,21.7,3.6,31.5,6.2c9.7,2.7,18.9,5.9,27.6,9.3c17.5,7,33.3,15.3,47.9,24.6
	c29.1,18.6,53.3,41.2,73.8,66.7c20.5,25.6,37.2,54.1,48.9,86.6c5.9,16.3,10.4,33.6,13.4,52.2c1.5,9.3,2.5,19,3,29.1
	c0.4,10.1,0.4,20.6-1,32.2c-11.6-1.2-21.8-3.5-31.6-6.2c-9.7-2.7-18.9-5.8-27.7-9.3c-17.5-7-33.3-15.3-47.9-24.6
	c-29.1-18.7-53.3-41.3-73.6-66.9c-20.3-25.6-37-54.2-48.7-86.7c-5.9-16.3-10.4-33.6-13.4-52.1c-1.5-9.3-2.5-18.9-3-29
	C1378.6,1231.1,1378.5,1220.7,1379.9,1209.1z"/>
<path class="st0" d="M1704.6,979.3c11.3,2.9,21,6.7,30.3,10.7c9.2,4.1,17.9,8.5,26,13.2c16.3,9.4,30.8,19.9,43.9,31.2
	c26.1,22.6,46.9,48.4,63.5,76.6c16.6,28.2,29,58.9,36,92.7c3.5,16.9,5.5,34.7,5.8,53.5c0.1,9.4-0.3,19.1-1.2,29.2
	c-1,10.1-2.5,20.4-5.6,31.7c-11.3-2.8-21.1-6.6-30.4-10.6c-9.2-4.1-17.9-8.5-26.1-13.2c-16.3-9.4-30.8-19.9-43.9-31.2
	c-26.1-22.6-46.8-48.5-63.3-76.7c-16.5-28.3-28.8-59-35.8-92.8c-3.5-16.9-5.5-34.7-5.8-53.5c-0.1-9.4,0.2-19.1,1.2-29.1
	C1700.2,1000.9,1701.6,990.6,1704.6,979.3z"/>
<path class="st0" d="M2214.8,785c9.4,6.9,17,14.1,24.1,21.3c7,7.2,13.3,14.6,19.1,22c11.5,14.9,21,30,28.9,45.4
	c15.7,30.8,25.2,62.5,30,94.9c4.8,32.4,4.7,65.5-1.5,99.5c-3.1,17-7.9,34.2-14.8,51.8c-3.4,8.8-7.4,17.6-12.1,26.6
	c-4.8,9-10,18-17.1,27.3c-9.4-6.9-17.1-14.1-24.2-21.3c-7-7.2-13.4-14.6-19.2-22c-11.6-14.9-21.1-30-28.9-45.4
	c-15.7-30.8-25.1-62.5-29.8-94.9c-4.6-32.4-4.6-65.5,1.7-99.5c3.1-17,7.9-34.2,14.8-51.8c3.4-8.8,7.4-17.6,12.1-26.6
	C2202.5,803.3,2207.8,794.3,2214.8,785z"/>
<path class="st0" d="M791.6,2043.7c9.8-6.3,19.2-10.9,28.5-14.9c9.3-4,18.4-7.3,27.4-10.1c18-5.5,35.5-9,52.7-10.9
	c34.4-3.8,67.4-1.4,99.3,5.6c32,7,62.9,18.8,92.4,36.7c14.8,9,29.2,19.6,43.2,32.2c7,6.3,13.8,13.2,20.5,20.8
	c6.7,7.6,13.3,15.8,19.5,25.7c-9.8,6.4-19.2,11-28.5,15.1c-9.3,4-18.4,7.4-27.4,10.1c-18,5.5-35.5,9.1-52.7,10.9
	c-34.4,3.7-67.3,1.3-99.3-5.8c-31.9-7.2-62.8-19-92.4-36.9c-14.8-9-29.2-19.6-43.2-32.2c-7-6.3-13.8-13.2-20.6-20.7
	C804.4,2061.7,797.8,2053.6,791.6,2043.7z"/>
<path class="st0" d="M907,2343.3c8-8.4,16.1-15,24.2-21.2c8.1-6,16.2-11.4,24.3-16.2c16.2-9.6,32.4-17.1,48.7-22.9
	c32.5-11.7,65.2-17.1,97.9-17.8c32.7-0.6,65.5,3.6,98.5,14.1c16.5,5.3,33,12.2,49.5,21.2c8.3,4.5,16.5,9.6,24.8,15.4
	c8.3,5.9,16.6,12.2,24.9,20.4c-8,8.5-16.1,15.1-24.2,21.3c-8.1,6.1-16.2,11.4-24.3,16.3c-16.2,9.6-32.4,17.1-48.7,23
	c-32.5,11.7-65.2,17-97.9,17.5c-32.7,0.5-65.5-3.8-98.5-14.3c-16.5-5.3-33-12.2-49.5-21.2c-8.3-4.5-16.5-9.6-24.8-15.3
	C923.6,2357.8,915.3,2351.4,907,2343.3z"/>
<path class="st0" d="M3762.8,2188.1c-9.9-6.1-19.4-10.4-28.8-14.2c-9.4-3.8-18.6-6.8-27.6-9.4c-18.1-5.1-35.7-8.1-53-9.6
	c-34.4-2.9-67.4,0.3-99.2,8c-31.8,7.8-62.4,20.3-91.5,39c-14.6,9.3-28.7,20.3-42.3,33.3c-6.8,6.5-13.5,13.5-20,21.3
	c-6.5,7.8-12.9,16.1-18.8,26.2c9.9,6.1,19.5,10.5,28.8,14.3c9.4,3.8,18.6,6.9,27.6,9.5c18.1,5.1,35.8,8.2,53,9.6
	c34.4,2.9,67.4-0.3,99.1-8.2c31.8-8,62.4-20.5,91.5-39.2c14.5-9.3,28.7-20.3,42.4-33.2c6.8-6.5,13.5-13.5,20-21.2
	C3750.5,2206.3,3756.8,2198.1,3762.8,2188.1z"/>
<path class="st0" d="M3634.4,2428c-8.7-7.8-17.3-13.7-25.8-19.1c-8.5-5.4-17-10-25.5-14.2c-16.9-8.2-33.7-14.4-50.4-18.9
	c-33.4-9-66.3-11.8-99-9.8c-32.7,2-65,8.9-97,22c-16,6.6-31.9,14.8-47.6,25.2c-7.9,5.2-15.7,10.9-23.5,17.4
	c-7.8,6.5-15.5,13.5-23.2,22.4c8.7,7.8,17.3,13.8,25.8,19.3c8.5,5.4,17,10.1,25.5,14.2c16.9,8.2,33.7,14.4,50.4,18.9
	c33.4,9,66.3,11.7,99,9.6c32.7-2.2,65-9.1,97-22.3c16-6.6,31.9-14.8,47.6-25.1c7.9-5.2,15.7-10.9,23.5-17.3
	C3619,2443.8,3626.7,2436.8,3634.4,2428z"/>
<path class="st0" d="M3266.9,2337.8c-9.2-7.1-18.2-12.5-27.1-17.3c-8.9-4.8-17.7-8.9-26.4-12.4c-17.4-7-34.6-12-51.6-15.4
	c-33.9-6.7-67-7.2-99.5-2.9c-32.5,4.3-64.3,13.3-95.3,28.6c-15.5,7.7-30.8,17-45.8,28.4c-7.5,5.7-14.9,12-22.2,18.9
	c-7.3,7-14.6,14.6-21.6,23.9c9.2,7.2,18.2,12.6,27.1,17.4c8.9,4.8,17.7,8.9,26.4,12.5c17.5,7.1,34.6,12.1,51.6,15.4
	c33.9,6.7,67,7.1,99.4,2.7c32.4-4.4,64.2-13.5,95.2-28.9c15.5-7.7,30.8-17,45.8-28.3c7.5-5.7,14.9-11.9,22.3-18.9
	C3252.6,2354.6,3259.9,2347.1,3266.9,2337.8z"/>
<path class="st0" d="M3997.9,1592.7c-11.2-3.1-21.6-4.6-31.6-5.7c-10-1-19.7-1.4-29.1-1.3c-18.8,0.2-36.6,2.1-53.5,5.5
	c-33.9,6.8-64.7,19-93,35.3c-28.4,16.4-54.3,36.9-77.1,62.9c-11.4,13-21.9,27.5-31.4,43.7c-4.7,8.1-9.2,16.8-13.3,26
	c-4.1,9.3-7.9,19-10.8,30.3c11.3,3.1,21.6,4.7,31.7,5.8c10.1,1,19.8,1.5,29.2,1.4c18.8-0.1,36.6-2.1,53.6-5.5
	c33.9-6.8,64.6-19,92.9-35.5c28.3-16.5,54.2-37,77-63.1c11.4-13,21.9-27.5,31.5-43.7c4.8-8.1,9.2-16.7,13.4-25.9
	C3991.1,1613.7,3995,1604,3997.9,1592.7z"/>
<path class="st0" d="M3532.2,1209.1c-11.6,1.2-21.7,3.6-31.5,6.2c-9.7,2.7-18.9,5.9-27.6,9.3c-17.5,7-33.3,15.3-47.9,24.6
	c-29.1,18.6-53.3,41.2-73.8,66.7c-20.5,25.6-37.2,54.1-48.9,86.6c-5.9,16.3-10.4,33.6-13.4,52.2c-1.5,9.3-2.5,19-3,29.1
	c-0.4,10.1-0.4,20.6,1,32.2c11.6-1.2,21.8-3.5,31.6-6.2c9.7-2.7,18.9-5.8,27.7-9.3c17.5-7,33.3-15.3,47.9-24.6
	c29.1-18.7,53.3-41.3,73.6-66.9c20.3-25.6,37-54.2,48.7-86.7c5.9-16.3,10.4-33.6,13.4-52.1c1.5-9.3,2.5-18.9,3-29
	C3533.5,1231.1,3533.6,1220.7,3532.2,1209.1z"/>
<path class="st0" d="M3288.4,979.3c-11.3,2.9-21,6.7-30.3,10.7c-9.2,4.1-17.9,8.5-26,13.2c-16.3,9.4-30.8,19.9-43.9,31.2
	c-26.1,22.6-46.9,48.4-63.5,76.6c-16.6,28.2-29,58.9-36,92.7c-3.5,16.9-5.5,34.7-5.8,53.5c-0.1,9.4,0.3,19.1,1.2,29.2
	c1,10.1,2.5,20.4,5.6,31.7c11.3-2.8,21.1-6.6,30.4-10.6c9.2-4.1,17.9-8.5,26.1-13.2c16.3-9.4,30.8-19.9,43.9-31.2
	c26.1-22.6,46.8-48.5,63.3-76.7c16.5-28.3,28.8-59,35.8-92.8c3.5-16.9,5.5-34.7,5.8-53.5c0.1-9.4-0.2-19.1-1.2-29.1
	C3292.8,1000.9,3291.4,990.6,3288.4,979.3z"/>
<path class="st0" d="M2778.2,785c-9.4,6.9-17,14.1-24.1,21.3c-7,7.2-13.3,14.6-19.1,22c-11.5,14.9-21,30-28.9,45.4
	c-15.7,30.8-25.2,62.5-30,94.9c-4.8,32.4-4.7,65.5,1.5,99.5c3.1,17,7.9,34.2,14.8,51.8c3.4,8.8,7.4,17.6,12.1,26.6
	c4.8,9,10,18,17.1,27.3c9.4-6.9,17.1-14.1,24.2-21.3c7-7.2,13.4-14.6,19.2-22c11.6-14.9,21.1-30,28.9-45.4
	c15.7-30.8,25.1-62.5,29.8-94.9c4.6-32.4,4.6-65.5-1.7-99.5c-3.1-17-7.9-34.2-14.8-51.8c-3.4-8.8-7.4-17.6-12.1-26.6
	C2790.5,803.3,2785.3,794.3,2778.2,785z"/>
<path class="st0" d="M4201.4,2043.7c-9.8-6.3-19.2-10.9-28.5-14.9c-9.3-4-18.4-7.3-27.4-10.1c-18-5.5-35.5-9-52.7-10.9
	c-34.4-3.8-67.4-1.4-99.3,5.6c-32,7-62.9,18.8-92.4,36.7c-14.8,9-29.2,19.6-43.2,32.2c-7,6.3-13.8,13.2-20.5,20.8
	c-6.7,7.6-13.3,15.8-19.5,25.7c9.8,6.4,19.2,11,28.5,15.1c9.3,4,18.4,7.4,27.4,10.1c18,5.5,35.5,9.1,52.7,10.9
	c34.4,3.7,67.3,1.3,99.3-5.8c31.9-7.2,62.8-19,92.4-36.9c14.8-9,29.2-19.6,43.2-32.2c7-6.3,13.8-13.2,20.6-20.7
	C4188.6,2061.7,4195.2,2053.6,4201.4,2043.7z"/>
<path class="st0" d="M4086,2343.3c-8-8.4-16.1-15-24.2-21.2c-8.1-6-16.2-11.4-24.3-16.2c-16.2-9.6-32.4-17.1-48.7-22.9
	c-32.5-11.7-65.2-17.1-97.9-17.8c-32.7-0.6-65.5,3.6-98.5,14.1c-16.5,5.3-33,12.2-49.5,21.2c-8.3,4.5-16.5,9.6-24.8,15.4
	c-8.3,5.9-16.6,12.2-24.9,20.4c8,8.5,16.1,15.1,24.2,21.3c8.1,6.1,16.2,11.4,24.3,16.3c16.2,9.6,32.4,17.1,48.7,23
	c32.5,11.7,65.2,17,97.9,17.5c32.7,0.5,65.5-3.8,98.5-14.3c16.5-5.3,33-12.2,49.5-21.2c8.3-4.5,16.5-9.6,24.8-15.3
	C4069.4,2357.8,4077.7,2351.4,4086,2343.3z"/>
<g>
	<g>
		<g>
			<path class="st0" d="M2794.4,2325.9c-4.6,3-9.1,6.1-13.6,9.2c-9,6.2-18,12.6-26.8,19.1c-17.7,13-35.1,26.6-52.1,40.7
				c-34,28.2-66.7,58.5-97.4,91.2c-15.4,16.4-30.2,33.4-44.5,51.1c-14.3,17.7-27.9,36.1-40.7,55.4c-5.1,7.6-10,15.3-14.8,23.1
				c-5.7-9.2-11.6-18.2-17.7-27c-13.1-19-27-37.1-41.5-54.6c-14.5-17.4-29.6-34.2-45.2-50.3c-31.2-32.2-64.3-61.9-98.7-89.6
				c-17.2-13.8-34.8-27.1-52.7-39.8c-8.9-6.4-18-12.6-27.1-18.7c-4.6-3-9.1-6-13.8-9c-4.6-2.9-9.3-5.8-13.9-8.6
				c4.1,3.6,8,7.4,12,11.2c3.9,3.8,7.8,7.6,11.7,11.4c7.7,7.7,15.3,15.5,22.7,23.4c14.9,15.8,29.3,32,43.1,48.5
				c27.7,33.1,53.5,67.6,76.5,103.3c23,35.7,43.3,72.7,59.7,110.5c8.2,18.9,15.3,38.1,21.3,57.3c20.3,59.2-7.4,209.1-23,325.7
				s-354.1,177.9-354.1,177.9s369.2,41.8,443.8,38.9c74.5-2.9,404.2-38.8,404.2-38.9c0,0-302.2-50.4-321-184.2s-40.6-225.4-20.2-315
				c5.5-19.3,12.1-38.6,19.8-57.6c15.4-38.2,34.8-75.6,56.9-111.8c22.1-36.2,47-71.3,74-105.1c13.5-16.9,27.5-33.4,42-49.6
				c7.3-8.1,14.6-16.1,22.2-23.9c3.8-3.9,7.6-7.8,11.4-11.7c3.8-3.9,7.7-7.7,11.7-11.4C2803.5,2319.9,2798.9,2322.8,2794.4,2325.9z
				 M2557.7,2746L2557.7,2746C2557.7,2746,2557.7,2746,2557.7,2746L2557.7,2746z"/>
			<path class="st0" d="M2566.2,2491.8c0,34.3-27.8,62.2-62.2,62.2c-34.3,0-62.2-27.8-62.2-62.2c0-34.3,27.8-62.2,62.2-62.2
				C2538.4,2429.6,2566.2,2457.4,2566.2,2491.8z"/>
		</g>
	</g>
</g>
<rect x="1004.3" y="3166.6" class="st0" width="3005.4" height="59.8"/>
<rect x="1004.3" y="4069" class="st0" width="3005.4" height="59.8"/>
<g>
	<path class="st1" d="M3092,1537.4c0,0-44.5-34.7-49.6-75.7c-5.1-41,11.8-108,11.8-108s80.6,37.8,88.3,85.5
		c7.6,47.7-26.2,97.7-34.7,100.8c2.2-19.3,3.1-95-28-127.7C3079.7,1412.2,3109.1,1485.7,3092,1537.4z"/>
	<path class="st2" d="M3195.9,1782.3c-51.9,0-94-42.1-94-94c0-43.6,29.7-80.3,69.9-90.9c-13.8-13.9-30.3-22.6-48.3-27.6
		c-50.2-13.9-30.1-20.3-63.3-39.8c-33.2-19.6-136-32.3-207.5,43.3c-71.5,75.6-77.6,218.7-30.3,273.9c0,0,31.2,35.9,58.4,45
		c27.1,9.1,25.1,14.7,45.1,31c20,16.3,97.7,36.9,144.5,12.2c38.2-20.2,110.9-77.8,135.4-153.5
		C3202.4,1782.1,3199.2,1782.3,3195.9,1782.3z"/>
	<path class="st3" d="M3195.9,1781.3c-51.9,0-94-42.1-94-94c0-43.3,29.3-79.8,69.2-90.7c-13.7-13.4-29.9-21.9-47.6-26.8
		c-50.2-13.9-30.1-20.3-63.3-39.8c-33.2-19.6-136-32.3-207.5,43.3c-8.7,9.2-20.6,28.4-28.9,42.8c-17.3,37,66.3,138,145.2,169.8
		c91,36.6,200.1,29.7,232.4-4.7C3199.6,1781.3,3197.7,1781.3,3195.9,1781.3z"/>
	<path class="st4" d="M3197.2,1781.3c-51.9,0-94-42.1-94-94c0-42.9,28.8-79.2,68.1-90.4c-13.7-13.6-30.1-22.2-47.9-27.1
		c-6.6-1.8-11.5-4-15.6-6.2c-65.3-28.7-246.9,253.3-201.4,341.8c5.1,4.5,9.6,9.8,19.2,17.6c20,16.3,97.7,36.9,144.5,12.2
		c38.4-20.3,111.5-78.2,135.6-154.4C3203.1,1781.2,3200.2,1781.3,3197.2,1781.3z"/>
</g>
<g>
	<g>
		<path class="st2" d="M1244.1,3378.1l57.7,325.6h1.5l57.7-325.6h204.8v549.6H1432v-409.5h-1.5l-76.2,409.5h-103.2l-76.2-409.5h-1.5
			v409.5h-133.9v-549.6H1244.1z"/>
		<path class="st2" d="M1898.4,3378.1l133.9,549.6H1880l-14.6-96.2h-113.9l-14.6,96.2h-150.1l131.6-549.6H1898.4z M1807.6,3490.5
			l-39.3,233.2h80.1l-39.3-233.2H1807.6z"/>
		<path class="st2" d="M2236.4,3464.3c-43.1,0-48.5,40-48.5,188.6s5.4,188.6,48.5,188.6c34.6,0,43.1-30.8,43.1-134.7h138.6v40.8
			c0,155.5-89.3,188.6-181.7,188.6c-160.9,0-196.3-76.2-196.3-283.3c0-210.2,47.7-285.6,196.3-285.6c129.3,0,177.8,67.7,177.8,174
			v34.6h-138.6v-30.8C2275.6,3482.8,2264.1,3464.3,2236.4,3464.3z"/>
		<path class="st1" d="M2435.8,3499.7v-121.6h357.2v121.6h-107.8v428H2542v-428H2435.8z"/>
		<path class="st1" d="M3049.3,3378.1c109.3,0,150.9,61.6,150.9,146.3c0,73.9-28.5,120.9-93.9,130.9v1.5
			c68.5,6.2,90.1,49.3,90.1,123.2v47v22.3c0,22.3,2.3,44.6,6.9,53.9c3.8,6.2,6.9,11.5,16.2,16.9v7.7H3067
			c-13.9-28.5-13.9-82.4-13.9-104.7v-37c0-62.4-12.3-78.5-47-78.5h-37.7v220.2h-143.2v-549.6H3049.3z M2996.9,3610.6
			c40.8,0,60-26.2,60-65.4c0-46.2-17.7-63.9-60.8-63.9h-27.7v129.3H2996.9z"/>
		<path class="st1" d="M3592.7,3378.1v117h-182.4v93.9h170.9v112.4h-170.9v109.3h189.4v117h-332.5v-549.6H3592.7z"/>
		<path class="st1" d="M3977.6,3378.1v117h-182.4v93.9h170.9v112.4h-170.9v109.3h189.4v117H3652v-549.6H3977.6z"/>
	</g>
</g>
</svg>
